<?xml version="1.0" encoding="utf-8"?>
<!-- Generator: Adobe Illustrator 16.0.0, SVG Export Plug-In . SVG Version: 6.00 Build 0)  -->
<!DOCTYPE svg PUBLIC "-//W3C//DTD SVG 1.1//EN" "http://www.w3.org/Graphics/SVG/1.1/DTD/svg11.dtd">
<svg version="1.1" id="svg2" xmlns:svg="http://www.w3.org/2000/svg"
	 xmlns="http://www.w3.org/2000/svg" xmlns:xlink="http://www.w3.org/1999/xlink" x="0px" y="0px" width="800px" height="157px"
	 viewBox="0 -60 800 157" enable-background="new 0 -60 800 157" xml:space="preserve">
<g>
	<radialGradient id="SVGID_1_" cx="400" cy="18.5" r="68.5" gradientUnits="userSpaceOnUse">
		<stop  offset="0" style="stop-color:#575757"/>
		<stop  offset="0.2103" style="stop-color:#999999"/>
		<stop  offset="0.227" style="stop-color:#A2A2A2"/>
		<stop  offset="0.314" style="stop-color:#CACACA"/>
		<stop  offset="0.3934" style="stop-color:#E7E7E7"/>
		<stop  offset="0.4619" style="stop-color:#F9F9F9"/>
		<stop  offset="0.5117" style="stop-color:#FFFFFF"/>
		<stop  offset="0.5387" style="stop-color:#F9F9F9"/>
		<stop  offset="0.5754" style="stop-color:#E8E8E8"/>
		<stop  offset="0.6177" style="stop-color:#CBCBCB"/>
		<stop  offset="0.6637" style="stop-color:#A4A4A4"/>
		<stop  offset="0.6749" style="stop-color:#999999"/>
		<stop  offset="0.8621" style="stop-color:#F4F4F4"/>
		<stop  offset="0.8723" style="stop-color:#F1F1F1"/>
		<stop  offset="1" style="stop-color:#D2D2D3"/>
	</radialGradient>
	<path fill="url(#SVGID_1_)" d="M400-50c-37.832,0-68.5,30.668-68.5,68.5c0,37.832,30.668,68.5,68.5,68.5
		c37.832,0,68.5-30.668,68.5-68.5C468.5-19.332,437.832-50,400-50z M400,68.019c-27.348,0-49.518-22.171-49.518-49.519
		c0-27.349,22.17-49.518,49.518-49.518S449.519-8.849,449.519,18.5C449.519,45.848,427.348,68.019,400,68.019z"/>
	<radialGradient id="SVGID_2_" cx="400" cy="18.5" r="52.8193" gradientUnits="userSpaceOnUse">
		<stop  offset="0" style="stop-color:#E3E3E3"/>
		<stop  offset="0.1426" style="stop-color:#FFFFFF"/>
		<stop  offset="0.4361" style="stop-color:#FCFCFC"/>
		<stop  offset="0.6614" style="stop-color:#F2F2F2"/>
		<stop  offset="0.7005" style="stop-color:#F0F0F0"/>
		<stop  offset="0.8598" style="stop-color:#DEDFDF"/>
		<stop  offset="0.9517" style="stop-color:#ECEDED"/>
		<stop  offset="1" style="stop-color:#F6F6F6"/>
	</radialGradient>
	<path fill="url(#SVGID_2_)" d="M400-34.319c-29.171,0-52.819,23.648-52.819,52.819S370.829,71.319,400,71.319
		s52.819-23.648,52.819-52.819S429.171-34.319,400-34.319z"/>
</g>
</svg>
