<?xml version="1.0" encoding="utf-8"?>
<!-- Generator: Adobe Illustrator 16.0.0, SVG Export Plug-In . SVG Version: 6.00 Build 0)  -->
<!DOCTYPE svg PUBLIC "-//W3C//DTD SVG 1.1//EN" "http://www.w3.org/Graphics/SVG/1.1/DTD/svg11.dtd">
<svg version="1.1" id="圖層_1" xmlns="http://www.w3.org/2000/svg" xmlns:xlink="http://www.w3.org/1999/xlink" x="0px" y="0px"
	 width="91px" height="92.667px" viewBox="0 0 91 92.667" enable-background="new 0 0 91 92.667" xml:space="preserve">
<circle fill="#2D2D2D" cx="45.5" cy="46.333" r="40.5"/>
<circle fill="#2D2D2D" cx="45.5" cy="46.333" r="35.5"/>
<path fill="#FFFFFF" d="M45.5,8.333c-20.986,0-38,17.014-38,38c0,20.986,17.014,38,38,38c20.986,0,38-17.014,38-38
	C83.5,25.348,66.487,8.333,45.5,8.333z M45.5,81.833c-19.605,0-35.5-15.895-35.5-35.5c0-19.606,15.895-35.5,35.5-35.5
	S81,26.727,81,46.333C81,65.939,65.106,81.833,45.5,81.833z"/>
<ellipse opacity="0.5" fill="#0C0C0C" cx="46" cy="46.333" rx="20.333" ry="36"/>
<ellipse opacity="0.2" fill="#B5B5B5" cx="45.52" cy="46.417" rx="35.481" ry="20.25"/>
<g>
	<g>
		<g>
			<path fill="#FFFFFF" d="M37.475,53.211h-5.641v-2.43h5.885v-3.457h-4.155v-2.02h4.155v-3.421h-5.885v-2.43h5.678
				c2.157,0,3.235,0.754,3.235,2.261v2.281c0,0.648-0.176,1.152-0.526,1.515c-0.277,0.286-0.754,0.553-1.43,0.804
				c0.84,0.386,1.374,0.729,1.599,1.027c0.238,0.312,0.357,0.741,0.357,1.289v2.338C40.747,52.463,39.656,53.211,37.475,53.211z"/>
			<path fill="#FFFFFF" d="M47.01,53.211h-1.787c-1.38,0-2.327-0.206-2.84-0.617c-0.602-0.473-0.903-1.365-0.903-2.674v-7.325
				c0-1.185,0.257-2.007,0.77-2.468c0.502-0.449,1.361-0.673,2.576-0.673h4.833v2.43h-5.17v3.533h2.257
				c1.305,0,2.179,0.119,2.632,0.355c0.653,0.349,0.976,1.103,0.976,2.26v2.132C50.354,52.195,49.24,53.211,47.01,53.211z
				 M47.366,47.325h-2.876v3.457h2.876V47.325z"/>
			<path fill="#FFFFFF" d="M56.617,53.211h-2.144c-2.257,0-3.384-1.216-3.384-3.646v-6.542c0-2.38,1.127-3.569,3.384-3.569h2.144
				c2.257,0,3.385,1.189,3.385,3.569v6.542C60.001,51.996,58.874,53.211,56.617,53.211z M56.842,41.809h-2.594v9.085h2.594V41.809z"
				/>
		</g>
	</g>
	<g>
		<path fill="#FFFFFF" d="M46.032,9.208c-11.806,0-21.375,16.621-21.375,37.125c0,20.505,9.569,37.125,21.375,37.125
			c11.804,0,21.375-16.62,21.375-37.125C67.407,25.83,57.835,9.208,46.032,9.208z M46,82.333c-11.229,0-20.333-16.116-20.333-36
			c0-19.883,9.104-36,20.333-36c11.228,0,20.333,16.117,20.333,36C66.333,66.217,57.228,82.333,46,82.333z"/>
		<path fill="#FFFFFF" d="M9,46.333c0,11.775,16.342,21.32,36.5,21.32c20.16,0,36.5-9.545,36.5-21.32
			c0-11.773-16.34-21.32-36.5-21.32C25.343,25.013,9,34.56,9,46.333z M81.001,46.417c0,11.183-15.893,20.25-35.501,20.25
			c-19.606,0-35.499-9.067-35.499-20.25c0-11.184,15.893-20.25,35.499-20.25C65.109,26.167,81.001,35.233,81.001,46.417z"/>
	</g>
</g>
</svg>
