<?xml version="1.0" encoding="utf-8"?>
<!-- Generator: Adobe Illustrator 16.0.0, SVG Export Plug-In . SVG Version: 6.00 Build 0)  -->
<!DOCTYPE svg PUBLIC "-//W3C//DTD SVG 1.1//EN" "http://www.w3.org/Graphics/SVG/1.1/DTD/svg11.dtd">
<svg version="1.1" id="svg2" xmlns:svg="http://www.w3.org/2000/svg"
	 xmlns="http://www.w3.org/2000/svg" xmlns:xlink="http://www.w3.org/1999/xlink" x="0px" y="0px" width="800px" height="193px"
	 viewBox="0 0 800 193" enable-background="new 0 0 800 193" xml:space="preserve">
<g id="g11" transform="matrix(1.25,0,0,-1.25,-386.73125,784.70936)">
	<path id="path39" d="M373.065,625.809l0.111-19.945c-0.264-0.19-1.456-0.332-1.518-0.166c-4.737,11.741-8.528,17.855-22.728,17.855
		h-1.64V561.7c0-3.096,0.35-5.266,1.929-6.716c1.088-1.002,5.087-1.468,8.332-1.468c0.178,0,0.196-1.745,0-1.745h-30.728
		c-0.196,0-0.172,1.745,0,1.745c3.238,0,7.244,0.466,8.325,1.468c1.586,1.45,1.936,3.62,1.936,6.716v61.854h-1.64
		c-14.193,0-17.991-6.114-22.728-17.855c-0.068-0.166-1.254-0.025-1.518,0.166l0.111,19.945H373.065"/>
	<path id="path41" d="M391.486,560.981c0-2.845-0.35-5.105-1.782-6.304c-1.198-1.002-3.674-1.272-7.238-1.272
		c-0.191,0-0.215-1.634,0-1.634h27.839c0.215,0,0.196,1.634,0,1.634c-3.564,0-6.04,0.27-7.238,1.272
		c-1.438,1.198-1.782,3.459-1.782,6.304v39.778c0,2.851,0.344,5.105,1.782,6.304c1.198,1.002,3.674,1.266,7.238,1.266
		c0.196,0,0.215,1.641,0,1.641h-27.839c-0.215,0-0.191-1.641,0-1.641c3.564,0,6.04-0.264,7.238-1.266
		c1.432-1.198,1.782-3.453,1.782-6.304V560.981"/>
	<path id="path43" d="M465.248,609.969h-43.182c-0.197,0-0.178-1.641,0-1.641c3.238,0,5.573-0.264,6.66-1.266
		c1.303-1.198,1.622-3.453,1.622-6.304v-39.778c0-2.845-0.32-5.105-1.622-6.304c-1.087-1.002-3.422-1.272-6.66-1.272
		c-0.178,0-0.197-1.634,0-1.634h27.637c0.209,0,0.191,1.634,0,1.634c-3.57,0-6.58,0.27-7.772,1.272
		c-1.438,1.198-1.788,3.459-1.788,6.304v18.894h4.436c4.479,0,6.642-0.701,8.528-2.138c1.567-1.198,2.808-3.674,2.808-6.028
		c0-0.19,0.879-0.227,1.389,0v18.532c-0.51,0.215-1.389,0.19-1.389,0c0-2.36-1.241-5.057-2.808-6.255
		c-1.886-1.438-4.049-2.218-8.528-2.218h-4.436v26.082h5.106c13.192,0,17.179-6.279,19.164-13.579
		c0.043-0.166,1.198-0.012,1.155,0.172L465.248,609.969"/>
	<path id="path45" d="M517.775,609.969h-43.182c-0.196,0-0.178-1.641,0-1.641c3.238,0,5.573-0.264,6.661-1.266
		c1.309-1.198,1.622-3.453,1.622-6.304v-39.778c0-2.845-0.314-5.105-1.622-6.304c-1.087-1.002-3.422-1.272-6.661-1.272
		c-0.178,0-0.196-1.634,0-1.634h27.631c0.215,0,0.197,1.634,0,1.634c-3.564,0-6.568,0.27-7.766,1.272
		c-1.438,1.198-1.788,3.459-1.788,6.304v18.894h4.436c4.479,0,6.642-0.701,8.529-2.138c1.573-1.198,2.808-3.674,2.808-6.028
		c0-0.19,0.879-0.227,1.389,0v18.532c-0.51,0.215-1.389,0.19-1.389,0c0-2.36-1.235-5.057-2.808-6.255
		c-1.886-1.438-4.049-2.218-8.529-2.218h-4.436v26.082h5.106c13.192,0,17.179-6.279,19.158-13.579
		c0.049-0.166,1.204-0.012,1.161,0.172L517.775,609.969"/>
	<path id="path47" d="M535.734,574.436l8.823,24.178l8.909-24.178H535.734 M576.581,553.332c-4.584,0.595-6.138,2.163-8.245,7.649
		l-18.684,50.42c0,0.215-2.857,0.191-2.857,0l-18.285-49.332c-2.47-6.433-4.424-7.582-10.003-8.737
		c-0.166-0.031-0.197-1.561,0-1.561h17.732c0.197,0,0.178,1.555,0,1.561c-5.186,0.387-7.404,2.353-4.952,8.737l3.736,10.255h19.25
		l4.006-10.549c2.095-5.45,0.153-8.019-5.42-8.442c-0.172-0.006-0.191-1.561,0-1.561h23.723
		C576.778,551.771,576.754,553.313,576.581,553.332"/>
	<path id="path49" d="M639.541,609.969h-20.436c-0.196,0-0.172-1.622,0-1.641c4.4-0.387,6.544-0.787,7.687-2.746
		c1.309-2.249,1.905-6.064,1.905-11.115v-27.605l-32.915,43.108h-16.78c-0.203,0-0.178-1.641,0-1.641
		c6.113,0,9.105-3.416,9.105-8.412v-32.945c0-5.051-0.32-8.565-1.628-10.808c-1.13-1.941-2.347-2.396-6.452-2.759
		c-0.172-0.006-0.196-1.634,0-1.634h20.234c0.196,0,0.172,1.628,0,1.634c-4.399,0.399-6.537,0.786-7.687,2.759
		c-1.302,2.243-1.911,5.757-1.911,10.808v33.584l38.451-49.338c0.337-0.436,2.145-0.399,2.145,0v43.249
		c0,5.051,0.32,8.866,1.628,11.115c1.143,1.96,2.261,2.359,6.654,2.746C639.719,608.347,639.744,609.969,639.541,609.969"/>
	<path id="path51" d="M698.808,609.969h-17.745c-0.184,0-0.178-1.628-0.005-1.641c5.431-0.184,7.28-2.157,5.339-6.009
		l-11.631-21.689l-12.811,22.046c-1.91,3.686,0.234,5.653,5.548,5.653c0.172,0,0.184,1.641-0.013,1.641h-24.306
		c-0.197,0-0.166-1.622,0.006-1.641c4.577-0.32,5.948-1.469,7.827-5.106l15.201-26.611v-15.63c0-2.845-0.35-5.105-1.652-6.304
		c-1.094-1.002-3.65-1.272-6.894-1.272c-0.172,0-0.191-1.634,0-1.634h26.899c0.191,0,0.172,1.634,0,1.634
		c-3.25,0-5.806,0.27-6.9,1.272c-1.296,1.198-1.652,3.459-1.652,6.304v17.352l13.419,24.153c2.237,4.178,4.651,5.438,9.364,5.843
		C698.975,608.347,699.018,609.969,698.808,609.969"/>
	<path id="path53" d="M723.158,572.071c0,7.428,3.515,12.841,10.04,15.84l18.991-24.995c-4.473-4.233-9.738-6.752-14.469-6.752
		C729.469,556.164,723.158,562.246,723.158,572.071 M742.501,618.583c5.388,0,8.584-4.012,8.584-10.47
		c0-5.935-4.571-12.405-11.14-14.992c-4.983,6.716-6.279,11.059-6.279,15.109C733.666,615.321,737.358,618.583,742.501,618.583
		 M780.951,587.819h-23.256c-0.209-0.627-0.196-1.518-0.018-1.523c5.948-0.179,8.534-2.464,6.365-7.042
		c-1.652-3.471-3.404-6.58-5.616-9.634l-16.921,21.622c10.101,4.897,15.312,9.892,15.312,17.781c0,5.782-5.85,12.006-14.777,12.006
		c-8.964,0-16.823-7.232-16.823-15.348c0-5.204,1.56-9.05,6.641-16.005c-10.187-3.41-18.826-11.582-18.826-20.94
		c0-10.525,8.375-18.021,19.533-18.021c8.221,0,15.471,4.332,21.112,10.531l6.949-9.474h18.021c0.209,0,0.147,1.609-0.019,1.609
		c-3.023,0.111-4.289,0.424-6.291,1.377c-2.458,1.167-4.363,3.103-7.029,6.248l-5.475,7.011c3.207,4.153,5.868,8.688,8.841,12.798
		c2.329,3.195,4.805,4.7,12.258,5.327C781.111,586.153,781.154,587.193,780.951,587.819"/>
	<path id="path55" d="M862.387,574.13c0,0.202-1.413,0.374-1.518-0.092c-2.703-12.903-12.294-20.922-21.056-20.922
		c-16.681,0-27.311,14.58-27.311,35.471c0,20.884,9.29,35.864,25.572,35.864c9.88,0,19.582-8.006,22.28-19.975
		c0.037-0.172,1.56-0.025,1.517,0.172l-0.602,22.433c-0.043,0.178-1.585,0.196-1.609,0c-0.381-3.238-2.427-4.99-5.671-3.723
		c-4.682,1.812-9.991,3.484-15.509,3.484c-21.007,0-38.948-17.179-38.948-38.254c0-21.081,17.535-37.855,38.948-37.855
		c9.413,0,16.695,1.929,22.82,6.101L862.387,574.13"/>
	<path id="path57" d="M918.908,580.87c0-16.424-6.095-27.913-17.714-27.913c-11.631,0-17.727,11.489-17.727,27.913
		c0,16.411,6.095,27.901,17.727,27.901C912.813,608.771,918.908,597.281,918.908,580.87 M871.984,580.87
		c0-16.368,12.873-29.916,29.21-29.916c16.337,0,29.203,13.548,29.203,29.916c0,16.374-12.866,29.922-29.203,29.922
		C884.857,610.792,871.984,597.244,871.984,580.87"/>
	<path id="path59" fill="#231F20" d="M941.433,563.494c3.423,0,6.138-2.759,6.138-6.267c0-3.509-2.716-6.273-6.138-6.273
		c-3.428,0-6.144,2.765-6.144,6.273C935.289,560.735,938.005,563.494,941.433,563.494"/>
</g>
<g>
	<path d="M179.088,155.146v-17.266c0-0.713-0.243-1.215-0.729-1.508c-0.486-0.291-1.346-0.518-2.578-0.68
		c-0.422-0.098-0.632-0.405-0.632-0.924c0-0.098,0-0.227,0-0.39c0-0.162,0.032-0.323,0.097-0.486
		c0.81,0.097,1.605,0.163,2.383,0.194c0.778,0.033,1.685,0.049,2.723,0.049c1.037,0,1.929-0.016,2.675-0.049
		c0.746-0.031,1.491-0.098,2.237-0.194c0.032,0.163,0.056,0.324,0.073,0.486c0.016,0.163,0.024,0.292,0.024,0.39
		c0,0.551-0.194,0.859-0.583,0.924c-1.07,0.162-1.799,0.389-2.188,0.68c-0.389,0.293-0.583,0.763-0.583,1.411v28.45
		c-0.13,0.031-0.349,0.057-0.657,0.072c-0.309,0.017-0.511,0.025-0.608,0.025c-0.227,0-0.47-0.058-0.729-0.17
		c-0.26-0.115-0.535-0.35-0.827-0.706l-19.162-24.316v21.01c0,0.324,0.024,0.592,0.073,0.802c0.048,0.212,0.178,0.39,0.389,0.535
		c0.211,0.146,0.519,0.276,0.924,0.389c0.405,0.115,0.948,0.236,1.629,0.365c0.162,0.033,0.3,0.105,0.414,0.219
		c0.113,0.114,0.17,0.35,0.17,0.705c0,0.228-0.033,0.504-0.098,0.827c-0.811-0.065-1.573-0.122-2.286-0.171
		c-0.713-0.048-1.54-0.072-2.48-0.072c-0.941,0-1.841,0.024-2.699,0.072c-0.859,0.049-1.646,0.105-2.359,0.171
		c-0.065-0.13-0.097-0.274-0.097-0.438c0-0.162,0-0.292,0-0.39c0-0.323,0.056-0.551,0.17-0.681c0.113-0.129,0.25-0.21,0.413-0.243
		c1.167-0.194,1.945-0.438,2.334-0.729s0.583-0.745,0.583-1.361v-24.608c0-0.519-0.17-0.916-0.511-1.191
		c-0.34-0.275-1.111-0.494-2.31-0.656c-0.389-0.098-0.583-0.405-0.583-0.924c0-0.065,0-0.139,0-0.22s0.016-0.17,0.049-0.267
		l0.048-0.39c0.454,0.032,0.892,0.058,1.313,0.073c0.421,0.016,0.843,0.041,1.264,0.072c0.713,0.033,1.435,0.057,2.164,0.073
		s1.321,0.024,1.775,0.024c0.94,0,1.556,0.041,1.848,0.121c0.292,0.082,0.551,0.236,0.778,0.463L179.088,155.146z"/>
	<path d="M199.173,136.568v11.721h6.857c0.615,0,1.037-0.251,1.265-0.754c0.226-0.502,0.421-1.32,0.583-2.456
		c0.032-0.259,0.129-0.429,0.292-0.511c0.162-0.08,0.373-0.121,0.632-0.121c0.097,0,0.251,0.008,0.462,0.023
		c0.21,0.018,0.365,0.041,0.462,0.073c-0.065,0.747-0.122,1.613-0.17,2.603c-0.049,0.988-0.073,1.823-0.073,2.504
		c0,0.584,0.016,1.273,0.048,2.066c0.032,0.795,0.097,1.695,0.195,2.699c-0.098,0.066-0.252,0.105-0.462,0.122
		c-0.211,0.017-0.365,0.024-0.462,0.024c-0.583,0-0.892-0.227-0.924-0.681c-0.195-1.231-0.414-2.067-0.657-2.505
		s-0.641-0.656-1.191-0.656h-6.857v10.894c0,0.681,0.421,1.136,1.265,1.362c0.843,0.227,2.269,0.34,4.28,0.34h2.042
		c0.973,0,1.791-0.129,2.456-0.389c0.664-0.26,1.256-0.625,1.775-1.095c0.519-0.47,0.973-1.021,1.362-1.653s0.778-1.338,1.167-2.115
		c0.098-0.227,0.324-0.341,0.681-0.341c0.162,0,0.356,0.049,0.583,0.146c0.227,0.098,0.454,0.195,0.681,0.292
		c-0.065,0.261-0.138,0.503-0.219,0.729c-0.081,0.228-0.154,0.455-0.219,0.682c-0.163,0.356-0.292,0.746-0.389,1.166
		c-0.097,0.422-0.194,0.763-0.292,1.021c-0.065,0.324-0.139,0.689-0.219,1.095c-0.081,0.405-0.163,0.795-0.243,1.167
		c-0.081,0.373-0.163,0.705-0.243,0.997c-0.081,0.292-0.138,0.486-0.17,0.583c-0.13,0.26-0.389,0.39-0.778,0.39
		c-0.26,0-0.632-0.017-1.119-0.049s-1.014-0.057-1.581-0.073c-0.567-0.016-1.143-0.041-1.726-0.072
		c-0.584-0.033-1.087-0.049-1.508-0.049h-11.04c-0.941,0-2.019,0.024-3.234,0.072c-1.216,0.049-2.31,0.105-3.283,0.171
		c-0.065-0.13-0.097-0.3-0.097-0.511s0-0.365,0-0.462c0-0.486,0.162-0.745,0.486-0.778c1.232-0.227,2.116-0.469,2.65-0.729
		c0.535-0.259,0.803-0.712,0.803-1.361v-24.365c0-0.323-0.049-0.591-0.146-0.803c-0.097-0.21-0.284-0.389-0.56-0.534
		c-0.275-0.146-0.632-0.275-1.07-0.39c-0.438-0.113-0.997-0.235-1.678-0.364c-0.325-0.098-0.486-0.39-0.486-0.876
		c0-0.161,0-0.315,0-0.462s0.032-0.299,0.097-0.462c1.394,0.097,2.626,0.163,3.696,0.194c1.07,0.033,1.994,0.049,2.772,0.049h9.97
		c1.459,0,2.715-0.049,3.769-0.146c1.053-0.097,1.775-0.146,2.164-0.146c0.356,0,0.616,0.146,0.778,0.438
		c0.097,0.26,0.178,0.737,0.243,1.434c0.064,0.697,0.178,1.419,0.34,2.164c0.097,0.553,0.21,1.087,0.34,1.605
		c0.129,0.52,0.324,1.151,0.584,1.896c-0.163,0.065-0.341,0.13-0.535,0.195c-0.194,0.064-0.389,0.097-0.583,0.097
		c-0.357,0-0.616-0.146-0.778-0.438c-0.389-0.842-0.771-1.562-1.143-2.164c-0.374-0.6-0.795-1.086-1.265-1.459
		c-0.47-0.371-1.021-0.639-1.653-0.802c-0.632-0.162-1.386-0.243-2.262-0.243H199.173z"/>
	<path d="M240.755,133.65c0.162-0.032,0.308-0.057,0.438-0.073c0.129-0.016,0.243-0.024,0.34-0.024c0.259,0,0.445,0.057,0.559,0.17
		c0.113,0.115,0.235,0.334,0.365,0.657l7.976,21.009l5.933-17.167c0.162-0.421,0.243-0.761,0.243-1.021
		c0-0.454-0.211-0.787-0.632-0.998c-0.422-0.21-1.151-0.381-2.188-0.51c-0.389-0.032-0.583-0.341-0.583-0.924
		c0-0.065,0.007-0.139,0.024-0.22c0.016-0.081,0.024-0.17,0.024-0.267l0.049-0.39c0.551,0.065,1.337,0.122,2.359,0.17
		c1.021,0.049,1.969,0.073,2.845,0.073c0.94,0,1.832-0.016,2.675-0.049c0.843-0.031,1.588-0.098,2.237-0.194l0.048,0.39
		c0,0.097,0.008,0.193,0.024,0.291c0.016,0.098,0.024,0.179,0.024,0.243c0,0.616-0.211,0.94-0.632,0.973
		c-1.005,0.097-1.743,0.26-2.213,0.486c-0.47,0.228-0.819,0.665-1.045,1.313l-10.262,28.693c-0.163,0.031-0.276,0.049-0.34,0.049
		c-0.065,0-0.179,0-0.34,0c-0.227,0-0.397-0.049-0.511-0.146c-0.114-0.098-0.251-0.324-0.413-0.681l-7.927-21.106l-7.733,21.885
		c-0.163,0.031-0.284,0.049-0.365,0.049c-0.081,0-0.187,0-0.316,0c-0.26,0-0.446-0.049-0.56-0.146
		c-0.114-0.098-0.235-0.324-0.365-0.681l-10.65-28.159c-0.163-0.453-0.446-0.802-0.851-1.045c-0.406-0.243-1.224-0.43-2.456-0.559
		c-0.422-0.033-0.632-0.373-0.632-1.021c0-0.098,0-0.235,0-0.414c0-0.178,0.032-0.316,0.098-0.413
		c0.486,0.032,1.037,0.065,1.653,0.097c0.616,0.033,1.24,0.058,1.873,0.073c0.632,0.017,1.248,0.032,1.848,0.049
		c0.6,0.017,1.126,0.024,1.581,0.024c1.07,0,2.237-0.024,3.502-0.073c1.264-0.048,2.399-0.104,3.404-0.17
		c0.032,0.163,0.056,0.324,0.073,0.486c0.016,0.163,0.024,0.292,0.024,0.39c0,0.583-0.211,0.892-0.632,0.924
		c-1.038,0.097-1.768,0.26-2.188,0.486c-0.422,0.227-0.632,0.535-0.632,0.924c0,0.13,0.016,0.252,0.049,0.364
		c0.032,0.114,0.081,0.252,0.146,0.413l6.371,17.557L240.755,133.65z"/>
	<path d="M285.837,152.423l-7.732-14.735c-0.357-0.682-0.803-1.151-1.337-1.411c-0.535-0.259-1.225-0.454-2.067-0.583
		c-0.389-0.032-0.584-0.357-0.584-0.973c0-0.064,0-0.139,0-0.219c0-0.081,0.016-0.171,0.049-0.268l0.049-0.341
		c0.712,0.065,1.629,0.122,2.748,0.17c1.119,0.049,2.342,0.073,3.672,0.073c0.454,0,0.997-0.008,1.629-0.024
		c0.632-0.017,1.272-0.032,1.921-0.049c0.648-0.016,1.256-0.04,1.824-0.073c0.567-0.031,1.029-0.064,1.386-0.097
		c0.065,0.292,0.097,0.495,0.097,0.608s0,0.202,0,0.268c0,0.551-0.194,0.859-0.583,0.924c-0.843,0.097-1.427,0.234-1.75,0.413
		c-0.325,0.179-0.486,0.413-0.486,0.705c0,0.26,0.113,0.601,0.34,1.021l5.69,11.283l5.593-10.504
		c0.356-0.616,0.535-1.135,0.535-1.557c0-0.389-0.179-0.672-0.535-0.852c-0.357-0.178-0.973-0.348-1.848-0.51
		c-0.421-0.064-0.632-0.373-0.632-0.924c0-0.13,0.048-0.422,0.146-0.876c0.681,0.065,1.532,0.122,2.553,0.17
		c1.021,0.049,1.921,0.073,2.699,0.073c0.746,0,1.532-0.016,2.359-0.049c0.827-0.031,1.661-0.098,2.504-0.194
		c0.064,0.228,0.097,0.413,0.097,0.56c0,0.146,0,0.251,0,0.316c0,0.583-0.194,0.892-0.583,0.924
		c-1.167,0.162-1.978,0.373-2.432,0.632c-0.454,0.26-0.843,0.665-1.167,1.216l-8.024,14.784v9.679c0,0.356,0.048,0.648,0.146,0.875
		c0.097,0.227,0.275,0.422,0.535,0.584c0.259,0.162,0.608,0.3,1.046,0.412c0.438,0.115,1.013,0.22,1.726,0.316
		c0.162,0.033,0.299,0.105,0.414,0.219c0.113,0.114,0.17,0.35,0.17,0.705c0,0.066-0.009,0.139-0.024,0.219
		c-0.017,0.082-0.024,0.171-0.024,0.268l-0.049,0.341c-0.519,0-1.005-0.009-1.459-0.024c-0.454-0.017-0.908-0.041-1.361-0.072
		c-0.778-0.066-1.581-0.105-2.408-0.122c-0.827-0.016-1.516-0.024-2.067-0.024c-0.583,0-1.257,0.009-2.018,0.024
		c-0.762,0.017-1.5,0.056-2.213,0.122c-0.422,0.031-0.835,0.056-1.24,0.072c-0.406,0.016-0.819,0.024-1.24,0.024l-0.048-0.341
		c-0.033-0.097-0.049-0.186-0.049-0.268c0-0.08,0-0.152,0-0.219c0-0.355,0.056-0.591,0.17-0.705c0.113-0.113,0.25-0.186,0.413-0.219
		c0.681-0.129,1.248-0.25,1.702-0.364c0.454-0.113,0.81-0.243,1.07-0.39c0.259-0.146,0.438-0.332,0.535-0.559
		s0.146-0.519,0.146-0.875V152.423z"/>
	<path d="M305.971,149.942c0-2.269,0.429-4.394,1.289-6.371c0.859-1.978,2.034-3.712,3.526-5.204
		c1.491-1.49,3.234-2.666,5.228-3.525c1.994-0.859,4.125-1.289,6.396-1.289c2.334,0,4.506,0.406,6.517,1.217
		c2.01,0.811,3.752,1.945,5.228,3.404c1.475,1.459,2.634,3.193,3.478,5.203c0.842,2.011,1.264,4.199,1.264,6.565
		c0,2.27-0.43,4.401-1.289,6.396c-0.859,1.994-2.035,3.729-3.526,5.203c-1.492,1.477-3.243,2.643-5.252,3.502
		c-2.011,0.858-4.15,1.289-6.419,1.289c-2.334,0-4.507-0.406-6.517-1.217c-2.011-0.81-3.745-1.945-5.204-3.404
		s-2.61-3.186-3.453-5.179C306.392,154.538,305.971,152.342,305.971,149.942z M323.138,163.803c1.362,0,2.593-0.299,3.696-0.9
		c1.102-0.6,2.05-1.418,2.845-2.455c0.794-1.037,1.41-2.254,1.848-3.647c0.438-1.394,0.656-2.886,0.656-4.475
		c0-2.302-0.219-4.441-0.656-6.419c-0.438-1.978-1.103-3.688-1.994-5.131c-0.892-1.443-2.011-2.578-3.355-3.404
		c-1.346-0.827-2.911-1.24-4.693-1.24c-1.135,0-2.237,0.252-3.307,0.754c-1.07,0.502-2.01,1.232-2.82,2.188
		c-0.811,0.957-1.459,2.116-1.945,3.479c-0.486,1.361-0.729,2.901-0.729,4.619c0,2.4,0.235,4.621,0.705,6.663
		c0.47,2.042,1.15,3.802,2.042,5.276c0.892,1.477,1.986,2.627,3.283,3.453C320.009,163.389,321.484,163.803,323.138,163.803z"/>
	<path d="M354.798,151.645h-2.091v10.164c0,0.746,0.316,1.273,0.948,1.58c0.632,0.309,1.71,0.561,3.234,0.754
		c0.454,0.066,0.681,0.39,0.681,0.973c0,0.26-0.033,0.553-0.097,0.876c-0.941-0.065-2.116-0.122-3.526-0.171
		c-1.41-0.048-2.942-0.072-4.596-0.072c-1.167,0-2.294,0.024-3.38,0.072c-1.087,0.049-2.1,0.105-3.04,0.171
		c-0.065-0.13-0.098-0.274-0.098-0.438c0-0.162,0-0.292,0-0.39c0-0.551,0.178-0.858,0.535-0.924c0.681-0.129,1.232-0.25,1.653-0.365
		c0.421-0.112,0.746-0.242,0.973-0.389c0.227-0.146,0.381-0.323,0.462-0.535c0.081-0.21,0.122-0.478,0.122-0.802v-24.365
		c0-0.648-0.236-1.118-0.706-1.411c-0.47-0.291-1.37-0.518-2.699-0.68c-0.163-0.064-0.292-0.162-0.389-0.293
		c-0.097-0.129-0.146-0.355-0.146-0.68c0-0.13,0-0.275,0-0.438s0.032-0.293,0.097-0.39c0.907,0.065,1.953,0.122,3.137,0.17
		c1.184,0.049,2.245,0.073,3.186,0.073h7.344c1.718,0,3.258,0.211,4.62,0.633c1.362,0.421,2.521,1.021,3.477,1.799
		c0.956,0.777,1.686,1.702,2.188,2.771c0.502,1.07,0.754,2.254,0.754,3.551c0,1.719-0.527,3.283-1.581,4.693
		c-1.054,1.41-2.504,2.473-4.353,3.186l7.635,11.137c0.583,0.844,1.256,1.427,2.019,1.75c0.761,0.325,1.466,0.568,2.115,0.73
		c0.162,0.032,0.292,0.105,0.389,0.219s0.146,0.316,0.146,0.607c0,0.131,0,0.275,0,0.438s-0.033,0.324-0.097,0.486
		c-0.357-0.032-0.86-0.057-1.508-0.072c-0.649-0.018-1.321-0.041-2.018-0.073c-0.698-0.032-1.395-0.058-2.091-0.073
		c-0.698-0.017-1.273-0.023-1.727-0.023c-0.681,0-1.362-0.284-2.042-0.852c-0.681-0.566-1.346-1.32-1.994-2.262L354.798,151.645z
		 M354.166,149.213c1.005,0,1.913-0.098,2.724-0.292c0.81-0.194,1.508-0.526,2.091-0.997c0.583-0.469,1.029-1.094,1.337-1.872
		c0.308-0.778,0.462-1.767,0.462-2.967c0-2.01-0.486-3.599-1.459-4.767c-0.973-1.166-2.691-1.75-5.155-1.75h-1.459v12.645H354.166z"
		/>
	<path d="M386.02,149.846v12.304c0,0.324,0.016,0.592,0.048,0.802c0.032,0.212,0.138,0.398,0.316,0.56
		c0.178,0.163,0.438,0.3,0.778,0.413c0.341,0.114,0.819,0.219,1.435,0.316c0.356,0.065,0.535,0.309,0.535,0.729
		c0,0.098-0.008,0.261-0.024,0.486c-0.017,0.228-0.041,0.405-0.073,0.535c-1.038-0.065-2.091-0.122-3.161-0.171
		c-1.07-0.048-2.059-0.072-2.967-0.072s-1.945,0.024-3.112,0.072c-1.167,0.049-2.27,0.105-3.307,0.171
		c-0.065-0.13-0.097-0.3-0.097-0.511s0-0.365,0-0.462c0-0.486,0.162-0.745,0.486-0.778c0.681-0.098,1.224-0.202,1.629-0.316
		c0.405-0.113,0.705-0.25,0.899-0.413c0.195-0.161,0.324-0.348,0.389-0.56c0.064-0.21,0.097-0.478,0.097-0.802v-24.365
		c0-0.323-0.033-0.591-0.097-0.803c-0.065-0.21-0.194-0.396-0.389-0.56c-0.194-0.161-0.495-0.299-0.899-0.413
		c-0.406-0.112-0.949-0.219-1.629-0.315c-0.325-0.098-0.486-0.373-0.486-0.827c0-0.097,0-0.243,0-0.438
		c0-0.193,0.032-0.371,0.097-0.534c1.038,0.065,2.14,0.122,3.307,0.17c1.167,0.049,2.205,0.073,3.112,0.073s1.961-0.024,3.161-0.073
		c1.199-0.048,2.318-0.104,3.356-0.17c0.032,0.163,0.056,0.341,0.073,0.534c0.016,0.195,0.024,0.342,0.024,0.438
		c0,0.454-0.163,0.729-0.486,0.827c-0.681,0.097-1.224,0.203-1.629,0.315c-0.406,0.114-0.713,0.252-0.924,0.413
		c-0.211,0.163-0.34,0.35-0.389,0.56c-0.048,0.212-0.073,0.479-0.073,0.803v11.234l10.553-10.554
		c0.681-0.615,1.021-1.167,1.021-1.653c0-0.551-0.729-0.907-2.188-1.069c-0.357,0-0.535-0.342-0.535-1.021c0-0.098,0-0.219,0-0.365
		s0.032-0.299,0.097-0.462c0.907,0.065,1.856,0.122,2.845,0.17c0.989,0.049,1.873,0.073,2.65,0.073c0.357,0,0.761-0.008,1.216-0.024
		c0.453-0.017,0.915-0.032,1.386-0.049c0.47-0.016,0.924-0.04,1.362-0.073c0.438-0.031,0.818-0.064,1.143-0.097
		c0.064,0.163,0.097,0.315,0.097,0.462s0,0.268,0,0.365c0,0.648-0.179,1.005-0.534,1.069c-0.908,0.194-1.639,0.413-2.189,0.657
		c-0.551,0.242-1.086,0.624-1.604,1.143l-9.873,9.58l11.575,14.59c0.584,0.746,1.167,1.273,1.751,1.581
		c0.583,0.309,1.313,0.544,2.188,0.705c0.453,0.065,0.681,0.356,0.681,0.876c0,0.097-0.009,0.268-0.024,0.51
		c-0.017,0.244-0.057,0.43-0.121,0.56c-0.486-0.032-1.03-0.065-1.629-0.097c-0.602-0.033-1.209-0.058-1.824-0.074
		c-0.617-0.016-1.209-0.032-1.775-0.048c-0.567-0.017-1.062-0.024-1.483-0.024c-0.908,0-2.018,0.024-3.331,0.072
		c-1.313,0.049-2.538,0.105-3.672,0.171c-0.033-0.13-0.057-0.3-0.073-0.511c-0.017-0.211-0.024-0.365-0.024-0.462
		c0-0.519,0.194-0.778,0.583-0.778c0.778-0.098,1.321-0.227,1.629-0.389c0.308-0.162,0.462-0.373,0.462-0.633
		c0-0.194-0.057-0.381-0.17-0.559c-0.114-0.178-0.268-0.396-0.462-0.656L386.02,149.846z"/>
	<path d="M440.341,142.016c-0.291,0.097-0.6,0.146-0.924,0.146c-0.454,0-0.778-0.089-0.973-0.268
		c-0.194-0.178-0.324-0.364-0.389-0.56c-0.747-1.848-1.71-3.177-2.894-3.988c-1.184-0.81-2.765-1.215-4.742-1.215
		c-1.557,0-2.877,0.381-3.963,1.143c-1.087,0.762-1.63,1.921-1.63,3.477c0,1.201,0.413,2.165,1.24,2.895s1.864,1.37,3.112,1.921
		c1.248,0.552,2.594,1.087,4.037,1.604c1.441,0.52,2.787,1.168,4.036,1.945c1.248,0.778,2.286,1.768,3.112,2.967
		c0.827,1.2,1.24,2.74,1.24,4.62c0,1.233-0.211,2.432-0.632,3.599c-0.422,1.168-1.087,2.197-1.994,3.088
		c-0.908,0.893-2.06,1.605-3.452,2.141c-1.395,0.535-3.064,0.803-5.01,0.803c-2.141,0-4.053-0.231-5.738-0.691
		c-1.687-0.461-3.081-0.962-4.184-1.502c-0.097-1.391-0.251-2.76-0.461-4.105c-0.212-1.345-0.447-2.65-0.705-3.914
		c0.323-0.129,0.696-0.195,1.118-0.195c0.389,0,0.681,0.073,0.875,0.219c0.194,0.146,0.356,0.398,0.486,0.754
		c0.421,1.232,0.892,2.295,1.411,3.186c0.518,0.893,1.118,1.622,1.799,2.189c0.681,0.566,1.467,0.98,2.359,1.239
		c0.891,0.261,1.92,0.39,3.088,0.39c1.004,0,1.863-0.138,2.577-0.414c0.713-0.276,1.296-0.642,1.751-1.096
		c0.453-0.455,0.794-0.991,1.021-1.608c0.227-0.617,0.34-1.25,0.34-1.899c0-1.396-0.396-2.492-1.191-3.287
		c-0.795-0.797-1.783-1.462-2.967-1.998c-1.184-0.535-2.464-1.038-3.842-1.51c-1.379-0.471-2.658-1.071-3.842-1.803
		c-1.184-0.73-2.172-1.672-2.967-2.824c-0.795-1.153-1.191-2.704-1.191-4.652c0-1.299,0.234-2.51,0.705-3.629
		c0.47-1.121,1.159-2.095,2.066-2.923c0.908-0.829,2.002-1.485,3.283-1.973s2.748-0.731,4.401-0.731
		c1.362,0,2.731,0.146,4.109,0.438c1.378,0.293,2.942,0.779,4.693,1.459c0.064,0.973,0.17,2.067,0.316,3.283
		C439.977,139.948,440.147,141.043,440.341,142.016z"/>
	<path d="M455.174,162.149c0,0.324,0.024,0.592,0.073,0.802c0.049,0.212,0.178,0.398,0.39,0.56c0.21,0.163,0.518,0.3,0.924,0.413
		c0.404,0.114,0.948,0.219,1.629,0.316c0.324,0.065,0.486,0.341,0.486,0.827c0,0.097-0.009,0.243-0.024,0.438
		c-0.017,0.194-0.041,0.356-0.073,0.486c-1.037-0.065-2.147-0.122-3.331-0.171c-1.184-0.048-2.229-0.072-3.137-0.072
		c-0.94,0-1.994,0.024-3.161,0.072c-1.167,0.049-2.27,0.105-3.307,0.171c-0.065-0.13-0.098-0.292-0.098-0.486s0-0.341,0-0.438
		c0-0.519,0.162-0.794,0.486-0.827c0.681-0.098,1.224-0.202,1.629-0.316c0.405-0.113,0.705-0.25,0.9-0.413
		c0.194-0.161,0.323-0.348,0.389-0.56c0.064-0.21,0.098-0.478,0.098-0.802v-24.365c0-0.323-0.033-0.591-0.098-0.803
		c-0.065-0.21-0.194-0.396-0.389-0.56c-0.195-0.161-0.495-0.299-0.9-0.413c-0.405-0.112-0.948-0.219-1.629-0.315
		c-0.324-0.098-0.486-0.373-0.486-0.827c0-0.097,0-0.243,0-0.438c0-0.193,0.032-0.371,0.098-0.534
		c1.037,0.065,2.14,0.122,3.307,0.17c1.167,0.049,2.221,0.073,3.161,0.073c0.907,0,1.953-0.024,3.137-0.073
		c1.184-0.048,2.294-0.104,3.331-0.17c0.032,0.163,0.057,0.341,0.073,0.534c0.016,0.195,0.024,0.342,0.024,0.438
		c0,0.454-0.162,0.729-0.486,0.827c-0.681,0.097-1.225,0.203-1.629,0.315c-0.406,0.114-0.714,0.252-0.924,0.413
		c-0.212,0.163-0.341,0.35-0.39,0.56c-0.049,0.212-0.073,0.479-0.073,0.803V162.149z"/>
	<path d="M488.049,155.146v-17.266c0-0.713-0.243-1.215-0.729-1.508c-0.486-0.291-1.346-0.518-2.577-0.68
		c-0.422-0.098-0.633-0.405-0.633-0.924c0-0.098,0-0.227,0-0.39c0-0.162,0.032-0.323,0.098-0.486
		c0.811,0.097,1.604,0.163,2.383,0.194c0.778,0.033,1.686,0.049,2.724,0.049c1.037,0,1.929-0.016,2.675-0.049
		c0.745-0.031,1.491-0.098,2.237-0.194c0.032,0.163,0.056,0.324,0.073,0.486c0.016,0.163,0.024,0.292,0.024,0.39
		c0,0.551-0.195,0.859-0.584,0.924c-1.07,0.162-1.8,0.389-2.188,0.68c-0.39,0.293-0.584,0.763-0.584,1.411v28.45
		c-0.13,0.031-0.349,0.057-0.656,0.072c-0.309,0.017-0.511,0.025-0.608,0.025c-0.227,0-0.47-0.058-0.729-0.17
		c-0.26-0.115-0.534-0.35-0.826-0.706l-19.161-24.316v21.01c0,0.324,0.024,0.592,0.072,0.802c0.049,0.212,0.178,0.39,0.39,0.535
		c0.21,0.146,0.518,0.276,0.924,0.389c0.405,0.115,0.948,0.236,1.629,0.365c0.162,0.033,0.3,0.105,0.414,0.219
		c0.112,0.114,0.17,0.35,0.17,0.705c0,0.228-0.033,0.504-0.098,0.827c-0.811-0.065-1.572-0.122-2.285-0.171
		c-0.714-0.048-1.541-0.072-2.48-0.072c-0.94,0-1.841,0.024-2.699,0.072c-0.859,0.049-1.646,0.105-2.358,0.171
		c-0.065-0.13-0.098-0.274-0.098-0.438c0-0.162,0-0.292,0-0.39c0-0.323,0.057-0.551,0.17-0.681c0.113-0.129,0.251-0.21,0.414-0.243
		c1.167-0.194,1.945-0.438,2.334-0.729s0.584-0.745,0.584-1.361v-24.608c0-0.519-0.171-0.916-0.511-1.191
		c-0.341-0.275-1.111-0.494-2.311-0.656c-0.389-0.098-0.583-0.405-0.583-0.924c0-0.065,0-0.139,0-0.22s0.016-0.17,0.048-0.267
		l0.049-0.39c0.454,0.032,0.892,0.058,1.313,0.073c0.421,0.016,0.843,0.041,1.265,0.072c0.712,0.033,1.435,0.057,2.164,0.073
		s1.32,0.024,1.774,0.024c0.94,0,1.557,0.041,1.849,0.121c0.292,0.082,0.551,0.236,0.778,0.463L488.049,155.146z"/>
	<path d="M513.387,166.332c-2.724,0-5.106-0.422-7.149-1.265c-2.042-0.843-3.729-2.002-5.058-3.478
		c-1.33-1.475-2.326-3.209-2.99-5.203c-0.665-1.994-0.997-4.143-0.997-6.444c0-1.913,0.323-3.843,0.973-5.788
		c0.647-1.945,1.669-3.703,3.063-5.275c1.394-1.572,3.177-2.854,5.35-3.843c2.172-0.988,4.766-1.483,7.781-1.483
		c1.653,0,3.201,0.114,4.645,0.341c1.442,0.228,3.007,0.567,4.693,1.021c0.064,0.876,0.194,1.994,0.389,3.356
		s0.47,2.691,0.827,3.987c-0.163,0.033-0.373,0.073-0.633,0.122s-0.454,0.073-0.583,0.073c-0.26,0-0.479-0.041-0.657-0.122
		s-0.3-0.251-0.364-0.511c-0.357-1.07-0.763-1.969-1.216-2.699c-0.454-0.729-0.997-1.312-1.629-1.75
		c-0.633-0.438-1.37-0.754-2.213-0.949c-0.844-0.193-1.832-0.291-2.967-0.291c-1.751,0-3.3,0.3-4.645,0.899
		c-1.346,0.601-2.473,1.459-3.38,2.577c-0.908,1.119-1.598,2.465-2.067,4.037s-0.705,3.348-0.705,5.325
		c0,2.108,0.283,4.069,0.852,5.885c0.566,1.815,1.345,3.388,2.334,4.718c0.988,1.329,2.164,2.366,3.526,3.111
		c1.361,0.746,2.836,1.119,4.425,1.119c1.297,0,2.408-0.121,3.332-0.365c0.924-0.242,1.718-0.615,2.383-1.118
		c0.664-0.503,1.231-1.143,1.702-1.921c0.47-0.778,0.899-1.686,1.289-2.724c0.097-0.259,0.25-0.445,0.462-0.56
		c0.21-0.113,0.429-0.17,0.656-0.17c0.162,0,0.365,0.024,0.608,0.073c0.243,0.048,0.445,0.105,0.607,0.17
		c-0.194,0.552-0.397,1.176-0.607,1.872c-0.212,0.698-0.431,1.41-0.657,2.141c-0.227,0.729-0.43,1.459-0.607,2.188
		c-0.179,0.73-0.333,1.436-0.462,2.116c-1.589,0.292-3.21,0.503-4.863,0.632C517.18,166.266,515.364,166.332,513.387,166.332z"/>
	<path d="M539.503,136.568v11.721h6.856c0.616,0,1.038-0.251,1.265-0.754c0.227-0.502,0.421-1.32,0.584-2.456
		c0.032-0.259,0.129-0.429,0.292-0.511c0.161-0.08,0.372-0.121,0.632-0.121c0.098,0,0.251,0.008,0.462,0.023
		c0.211,0.018,0.365,0.041,0.462,0.073c-0.065,0.747-0.121,1.613-0.17,2.603c-0.049,0.988-0.073,1.823-0.073,2.504
		c0,0.584,0.017,1.273,0.049,2.066c0.032,0.795,0.098,1.695,0.194,2.699c-0.097,0.066-0.251,0.105-0.462,0.122
		s-0.364,0.024-0.462,0.024c-0.584,0-0.892-0.227-0.924-0.681c-0.194-1.231-0.413-2.067-0.656-2.505s-0.641-0.656-1.192-0.656
		h-6.856v10.894c0,0.681,0.421,1.136,1.264,1.362s2.27,0.34,4.28,0.34h2.042c0.973,0,1.792-0.129,2.456-0.389
		s1.257-0.625,1.775-1.095s0.973-1.021,1.361-1.653c0.39-0.633,0.778-1.338,1.168-2.115c0.097-0.227,0.323-0.341,0.681-0.341
		c0.162,0,0.356,0.049,0.583,0.146c0.227,0.098,0.454,0.195,0.682,0.292c-0.065,0.261-0.139,0.503-0.219,0.729
		c-0.082,0.228-0.154,0.455-0.22,0.682c-0.162,0.356-0.291,0.746-0.389,1.166c-0.098,0.422-0.194,0.763-0.292,1.021
		c-0.065,0.324-0.138,0.689-0.219,1.095s-0.162,0.795-0.243,1.167c-0.081,0.373-0.162,0.705-0.243,0.997s-0.138,0.486-0.17,0.583
		c-0.13,0.26-0.39,0.39-0.778,0.39c-0.26,0-0.632-0.017-1.118-0.049s-1.014-0.057-1.581-0.073c-0.567-0.016-1.143-0.041-1.727-0.072
		c-0.583-0.033-1.086-0.049-1.508-0.049H536.05c-0.94,0-2.019,0.024-3.234,0.072c-1.216,0.049-2.31,0.105-3.282,0.171
		c-0.065-0.13-0.098-0.3-0.098-0.511s0-0.365,0-0.462c0-0.486,0.162-0.745,0.486-0.778c1.231-0.227,2.115-0.469,2.65-0.729
		c0.535-0.259,0.803-0.712,0.803-1.361v-24.365c0-0.323-0.049-0.591-0.146-0.803c-0.097-0.21-0.284-0.389-0.559-0.534
		c-0.276-0.146-0.633-0.275-1.07-0.39c-0.438-0.113-0.997-0.235-1.678-0.364c-0.324-0.098-0.486-0.39-0.486-0.876
		c0-0.161,0-0.315,0-0.462s0.032-0.299,0.098-0.462c1.394,0.097,2.626,0.163,3.695,0.194c1.07,0.033,1.994,0.049,2.772,0.049h9.97
		c1.459,0,2.715-0.049,3.77-0.146c1.053-0.097,1.774-0.146,2.164-0.146c0.356,0,0.615,0.146,0.777,0.438
		c0.098,0.26,0.179,0.737,0.243,1.434c0.065,0.697,0.179,1.419,0.341,2.164c0.098,0.553,0.211,1.087,0.341,1.605
		c0.129,0.52,0.323,1.151,0.583,1.896c-0.162,0.065-0.34,0.13-0.535,0.195c-0.194,0.064-0.389,0.097-0.583,0.097
		c-0.357,0-0.616-0.146-0.778-0.438c-0.389-0.842-0.771-1.562-1.143-2.164c-0.373-0.6-0.795-1.086-1.265-1.459
		c-0.471-0.371-1.021-0.639-1.653-0.802c-0.633-0.162-1.387-0.243-2.262-0.243H539.503z"/>
	<path d="M569.07,143.037c0.811,0.097,1.702,0.162,2.675,0.193c0.973,0.033,2.092,0.049,3.356,0.049
		c1.264,0,2.374-0.023,3.331-0.072c0.956-0.049,1.855-0.122,2.699-0.219c0.032,0.162,0.056,0.324,0.073,0.486
		c0.016,0.162,0.023,0.309,0.023,0.438c0,0.26-0.057,0.43-0.17,0.51c-0.114,0.082-0.235,0.139-0.364,0.171
		c-1.136,0.163-1.873,0.373-2.213,0.632c-0.341,0.26-0.511,0.617-0.511,1.07v16.438c0,0.486,0.202,0.844,0.607,1.07
		s1.11,0.438,2.116,0.633c0.129,0.032,0.25,0.089,0.364,0.17c0.113,0.081,0.17,0.235,0.17,0.462c0,0.292-0.032,0.601-0.097,0.924
		c-0.844-0.065-1.751-0.122-2.724-0.171c-0.973-0.048-2.091-0.072-3.355-0.072s-2.367,0.031-3.308,0.098
		c-0.94,0.064-1.815,0.129-2.626,0.194c-0.065-0.13-0.105-0.284-0.121-0.462c-0.017-0.178-0.024-0.348-0.024-0.511
		c0-0.356,0.178-0.567,0.535-0.632c1.037-0.195,1.75-0.406,2.14-0.633c0.389-0.227,0.583-0.584,0.583-1.07v-16.438
		c0-0.453-0.211-0.803-0.632-1.046c-0.422-0.243-1.118-0.444-2.091-0.608c-0.163-0.031-0.292-0.088-0.39-0.17
		c-0.097-0.08-0.146-0.25-0.146-0.51c0-0.129,0-0.275,0-0.438S569.005,143.199,569.07,143.037z"/>
	<path d="M598.931,148.531c2.107,1.492,3.696,2.951,4.767,4.378c1.069,1.427,1.604,3.015,1.604,4.766
		c0,1.427-0.315,2.683-0.948,3.769c-0.632,1.088-1.451,1.994-2.456,2.725c-1.005,0.729-2.148,1.272-3.429,1.629
		c-1.281,0.355-2.569,0.535-3.866,0.535c-3.08,0-5.536-0.615-7.367-1.849c-1.833-1.231-2.748-3.192-2.748-5.884
		c0-1.816,0.64-3.43,1.921-4.84c1.28-1.41,2.909-2.585,4.888-3.525c-2.108-1.329-3.551-2.658-4.328-3.988
		c-0.778-1.329-1.168-2.594-1.168-3.793c0-0.875,0.154-1.768,0.463-2.676c0.308-0.906,0.818-1.717,1.531-2.432
		c0.713-0.712,1.646-1.296,2.797-1.75c1.15-0.453,2.553-0.682,4.206-0.682c1.621,0,3.016,0.171,4.183,0.512
		c1.167,0.34,2.123,0.803,2.869,1.386s1.297,1.272,1.654,2.067c0.356,0.795,0.534,1.646,0.534,2.553c0,1.653-0.486,3.064-1.459,4.23
		C601.606,146.83,600.39,147.787,598.931,148.531z M593.208,151.547c-0.555,0.39-0.996,0.836-1.322,1.338
		c-0.325,0.503-0.586,1.029-0.782,1.58c-0.196,0.553-0.326,1.095-0.392,1.629c-0.065,0.535-0.097,1.047-0.097,1.533
		c0,1.199,0.113,2.205,0.342,3.015c0.228,0.811,0.546,1.459,0.954,1.945c0.407,0.486,0.872,0.827,1.395,1.021
		c0.521,0.194,1.076,0.292,1.663,0.292c1.141,0,2.095-0.43,2.861-1.289c0.766-0.859,1.149-2.034,1.149-3.525
		c0-0.584-0.058-1.15-0.172-1.703c-0.113-0.551-0.366-1.118-0.758-1.701c-0.392-0.584-0.971-1.208-1.736-1.873
		C595.547,153.145,594.512,152.391,593.208,151.547z M596.889,147.268c0.551-0.615,0.939-1.378,1.167-2.285
		c0.227-0.908,0.341-1.849,0.341-2.821c0-1.523-0.35-2.731-1.046-3.623c-0.697-0.892-1.598-1.337-2.699-1.337
		c-0.875,0-1.629,0.299-2.262,0.898c-0.632,0.602-0.948,1.549-0.948,2.846c0,1.006,0.421,2.026,1.265,3.064
		C593.549,145.047,594.943,146.133,596.889,147.268z"/>
	<path d="M609.095,156.896c1.556-0.777,2.836-1.482,3.842-2.115c1.005-0.633,1.791-1.24,2.358-1.824
		c0.567-0.583,0.965-1.183,1.191-1.799c0.227-0.615,0.341-1.297,0.341-2.043c0-0.939-0.316-1.678-0.948-2.213
		c-0.633-0.535-1.419-0.803-2.359-0.803c-0.421,0-0.811,0.033-1.167,0.098c-0.356,0.066-0.722,0.17-1.094,0.316
		c-0.373,0.146-0.771,0.34-1.191,0.584c-0.422,0.242-0.893,0.543-1.411,0.899c-0.13,0.065-0.243,0.13-0.34,0.194
		c-0.098,0.065-0.228,0.098-0.39,0.098s-0.356-0.064-0.583-0.195c-0.228-0.129-0.422-0.323-0.584-0.583
		c1.557-1.653,3.047-2.886,4.475-3.696c1.426-0.811,3.047-1.216,4.863-1.216c1.88,0,3.444,0.438,4.693,1.313
		c1.247,0.875,1.872,2.221,1.872,4.036c0,0.812-0.146,1.557-0.438,2.237c-0.292,0.681-0.682,1.312-1.168,1.896
		s-1.054,1.103-1.702,1.557s-1.329,0.875-2.042,1.264V155c2.107,0.389,3.721,1.176,4.839,2.359s1.678,2.65,1.678,4.4
		c0,1.395-0.364,2.748-1.094,4.061c-0.729,1.314-1.816,2.537-3.259,3.672c-1.443,1.135-3.251,2.148-5.423,3.04
		s-4.701,1.612-7.587,2.164c-0.162-0.163-0.275-0.364-0.34-0.608c-0.065-0.242-0.098-0.445-0.098-0.607
		c0-0.291,0.146-0.486,0.438-0.584c2.27-0.777,4.102-1.58,5.496-2.406c1.394-0.827,2.48-1.678,3.258-2.554
		c0.778-0.876,1.305-1.751,1.581-2.626c0.275-0.875,0.413-1.751,0.413-2.627c0-1.459-0.349-2.609-1.045-3.452
		c-0.698-0.843-1.76-1.265-3.186-1.265c-1.103,0-2.4,0.292-3.891,0.875V156.896z"/>
	<path d="M639.879,159.814c-1.428,1.2-3.194,1.8-5.302,1.8c-1.167,0-2.253-0.162-3.258-0.486c-1.006-0.323-1.881-0.851-2.626-1.581
		c-0.747-0.729-1.33-1.652-1.751-2.771c-0.422-1.119-0.633-2.488-0.633-4.109c0-1.265,0.235-2.496,0.706-3.696
		c0.469-1.199,1.143-2.269,2.018-3.21c0.876-0.939,1.953-1.702,3.234-2.285c1.28-0.584,2.748-0.876,4.401-0.876
		c2.107,0,3.833,0.333,5.18,0.997c1.345,0.665,2.407,1.524,3.185,2.578c0.778,1.053,1.321,2.245,1.63,3.574
		c0.308,1.33,0.462,2.658,0.462,3.988c0,1.88-0.292,3.816-0.876,5.811c-0.583,1.994-1.523,3.924-2.82,5.787
		c-1.297,1.865-2.959,3.6-4.984,5.205c-2.027,1.604-4.467,2.941-7.319,4.012c-0.357-0.52-0.535-0.957-0.535-1.313
		c0-0.228,0.146-0.47,0.438-0.729c1.459-1.103,2.666-2.115,3.623-3.039c0.956-0.924,1.767-1.857,2.432-2.797
		c0.664-0.939,1.208-1.961,1.629-3.063C639.133,162.506,639.522,161.242,639.879,159.814z M636.523,158.6
		c0.876,0,1.572-0.162,2.092-0.486c0.519-0.324,0.907-0.754,1.167-1.289c0.259-0.535,0.43-1.168,0.511-1.896
		c0.08-0.73,0.121-1.484,0.121-2.262c0-5.188-1.248-7.781-3.744-7.781c-1.265,0-2.254,0.535-2.967,1.604
		c-0.714,1.069-1.07,2.918-1.07,5.544c0,2.4,0.332,4.094,0.997,5.082C634.293,158.105,635.259,158.6,636.523,158.6z"/>
</g>
</svg>
