<?xml version="1.0" encoding="utf-8"?>
<!-- Generator: Adobe Illustrator 16.0.0, SVG Export Plug-In . SVG Version: 6.00 Build 0)  -->
<!DOCTYPE svg PUBLIC "-//W3C//DTD SVG 1.1//EN" "http://www.w3.org/Graphics/SVG/1.1/DTD/svg11.dtd">
<svg version="1.1" id="Layer_1" xmlns="http://www.w3.org/2000/svg" xmlns:xlink="http://www.w3.org/1999/xlink" x="0px" y="0px"
	 width="1640.558px" height="434.979px" viewBox="0 0 1640.558 434.979" enable-background="new 0 0 1640.558 434.979"
	 xml:space="preserve">
<title>Bitmap</title>
<g>
	
		<polyline fill="none" stroke="#FFFFFF" stroke-width="20" stroke-linecap="round" stroke-linejoin="round" stroke-miterlimit="10" points="
		78.656,11.307 78.656,423.072 12.492,324.121 78.656,226.821 	"/>
	
		<line fill="none" stroke="#FFFFFF" stroke-width="20" stroke-linecap="round" stroke-linejoin="round" stroke-miterlimit="10" x1="255.079" y1="11.307" x2="113.598" y2="237.02"/>
	
		<line fill="none" stroke="#FFFFFF" stroke-width="20" stroke-linecap="round" stroke-linejoin="round" stroke-miterlimit="10" x1="23.608" y1="88.006" x2="369.81" y2="88.006"/>
	
		<line fill="none" stroke="#FFFFFF" stroke-width="20" stroke-linecap="round" stroke-linejoin="round" stroke-miterlimit="10" x1="376.832" y1="237.02" x2="295.083" y2="123.325"/>
	
		<polyline fill="none" stroke="#FFFFFF" stroke-width="20" stroke-linecap="round" stroke-linejoin="round" stroke-miterlimit="10" points="
		243.258,258.448 243.258,423.072 196.709,353.481 	"/>
	
		<line fill="none" stroke="#FFFFFF" stroke-width="20" stroke-linecap="round" stroke-linejoin="round" stroke-miterlimit="10" x1="243.258" y1="258.448" x2="139.94" y2="423.072"/>
	
		<polyline fill-rule="evenodd" clip-rule="evenodd" fill="none" stroke="#FFFFFF" stroke-width="20" stroke-linecap="round" stroke-linejoin="round" stroke-miterlimit="10" points="
		1001.066,423.072 1208.595,124.755 1178.519,77.936 1130.879,77.936 1104.814,120.705 1078.746,77.936 1023.54,77.936 	"/>
	
		<line fill="none" stroke="#FFFFFF" stroke-width="20" stroke-linecap="round" stroke-linejoin="round" stroke-miterlimit="10" x1="841.381" y1="62.974" x2="944.553" y2="62.974"/>
	
		<line fill="none" stroke="#FFFFFF" stroke-width="20" stroke-linecap="round" stroke-linejoin="round" stroke-miterlimit="10" x1="841.381" y1="323.326" x2="944.553" y2="323.326"/>
	
		<line fill="none" stroke="#FFFFFF" stroke-width="20" stroke-linecap="round" stroke-linejoin="round" stroke-miterlimit="10" x1="893.096" y1="62.974" x2="892.835" y2="323.326"/>
	
		<line fill="none" stroke="#FFFFFF" stroke-width="20" stroke-linecap="round" stroke-linejoin="round" stroke-miterlimit="10" x1="1055.419" y1="11.307" x2="947.719" y2="180.208"/>
	
		<line fill="none" stroke="#FFFFFF" stroke-width="20" stroke-linecap="round" stroke-linejoin="round" stroke-miterlimit="10" x1="1477.641" y1="11.307" x2="1405.256" y2="121.061"/>
	
		<polyline fill="none" stroke="#FFFFFF" stroke-width="20" stroke-linecap="round" stroke-linejoin="round" stroke-miterlimit="10" points="
		1319.837,73.491 1259.289,162.38 1259.289,358.743 1373.625,358.743 1373.625,73.491 1319.837,73.491 1319.837,358.743 	"/>
	
		<polyline fill="none" stroke="#FFFFFF" stroke-width="20" stroke-linecap="round" stroke-linejoin="round" stroke-miterlimit="10" points="
		1445.094,62.256 1576.84,62.256 1445.094,250.502 1565.612,423.072 	"/>
	
		<line fill="none" stroke="#FFFFFF" stroke-width="20" stroke-linecap="round" stroke-linejoin="round" stroke-miterlimit="10" x1="1474.797" y1="111.515" x2="1625.335" y2="332.646"/>
	
		<polyline fill-rule="evenodd" clip-rule="evenodd" fill="none" stroke="#FFFFFF" stroke-width="20" stroke-linecap="round" stroke-linejoin="round" stroke-miterlimit="10" points="
		1426.092,283.546 1426.092,423.072 1574.63,423.072 1574.63,267.219 1463.68,267.219 	"/>
	
		<line fill="none" stroke="#FFFFFF" stroke-width="20" stroke-linecap="round" stroke-linejoin="round" stroke-miterlimit="10" x1="1366.215" y1="223.829" x2="1259.289" y2="223.829"/>
	<g>
		
			<polyline fill="none" stroke="#FFFFFF" stroke-width="20" stroke-linecap="round" stroke-linejoin="round" stroke-miterlimit="10" points="
			521.256,11.307 464.239,107.766 464.239,311.708 540.771,423.072 		"/>
		
			<polyline fill="none" stroke="#FFFFFF" stroke-width="20" stroke-linecap="round" stroke-linejoin="round" stroke-miterlimit="10" points="
			376.832,423.072 203.791,159.407 303.782,159.407 303.782,257.551 181.196,257.551 181.196,201.332 		"/>
		
			<polyline fill="none" stroke="#FFFFFF" stroke-width="20" stroke-linecap="round" stroke-linejoin="round" stroke-miterlimit="10" points="
			420.966,115.679 555.544,115.679 555.544,291.112 468.625,423.072 		"/>
		
			<polyline fill="none" stroke="#FFFFFF" stroke-width="20" stroke-linecap="round" stroke-linejoin="round" stroke-miterlimit="10" points="
			757.291,64.18 630.192,64.18 630.192,243.927 757.291,243.927 757.291,329.76 697.074,423.072 630.192,423.072 		"/>
		
			<line fill="none" stroke="#FFFFFF" stroke-width="20" stroke-linecap="round" stroke-linejoin="round" stroke-miterlimit="10" x1="693.707" y1="65.452" x2="693.707" y2="243.927"/>
		
			<line fill="none" stroke="#FFFFFF" stroke-width="20" stroke-linecap="round" stroke-linejoin="round" stroke-miterlimit="10" x1="630.192" y1="183.728" x2="757.291" y2="183.728"/>
		
			<line fill="none" stroke="#FFFFFF" stroke-width="20" stroke-linecap="round" stroke-linejoin="round" stroke-miterlimit="10" x1="630.192" y1="131.648" x2="757.291" y2="131.648"/>
		
			<line fill="none" stroke="#FFFFFF" stroke-width="20" stroke-linecap="round" stroke-linejoin="round" stroke-miterlimit="10" x1="674.96" y1="381.989" x2="619.452" y2="300.549"/>
		
			<line fill="none" stroke="#FFFFFF" stroke-width="20" stroke-linecap="round" stroke-linejoin="round" stroke-miterlimit="10" x1="613.158" y1="381.989" x2="557.651" y2="300.549"/>
		
			<line fill="none" stroke="#FFFFFF" stroke-width="20" stroke-linecap="round" stroke-linejoin="round" stroke-miterlimit="10" x1="820.563" y1="423.072" x2="757.291" y2="329.76"/>
		
			<line fill="none" stroke="#FFFFFF" stroke-width="20" stroke-linecap="round" stroke-linejoin="round" stroke-miterlimit="10" x1="729.992" y1="372.058" x2="681.255" y2="300.549"/>
	</g>
	
		<line fill="none" stroke="#FFFFFF" stroke-width="20" stroke-linecap="round" stroke-linejoin="round" stroke-miterlimit="10" x1="1036.652" y1="190.65" x2="1190.069" y2="423.072"/>
</g>
</svg>
